<svg xmlns="http://www.w3.org/2000/svg" viewBox="0 0 64 64">
  <rect width="64" height="64" rx="18" fill="#10302E" />
  <path
    d="M18 30C18 20 28 18 32 29C36 18 46 20 46 30C46 39 38 43 32 49C26 43 18 39 18 30Z"
    fill="none"
    stroke="#E08C71"
    stroke-width="5.25"
    stroke-linecap="round"
    stroke-linejoin="round"
  />
  <path
    d="M18 36C24 24 40 24 46 36"
    fill="none"
    stroke="#10302E"
    stroke-width="7.5"
    stroke-linecap="round"
    stroke-linejoin="round"
  />
  <path
    d="M18 36C24 24 40 24 46 36"
    fill="none"
    stroke="#DCEFE7"
    stroke-width="4.75"
    stroke-linecap="round"
    stroke-linejoin="round"
  />
  <path
    d="M18 28C24 40 40 40 46 28"
    fill="none"
    stroke="#10302E"
    stroke-width="7.5"
    stroke-linecap="round"
    stroke-linejoin="round"
  />
  <path
    d="M18 28C24 40 40 40 46 28"
    fill="none"
    stroke="#E08C71"
    stroke-width="4.75"
    stroke-linecap="round"
    stroke-linejoin="round"
  />
  <path
    d="M32 25V39M25 32H39"
    fill="none"
    stroke="#FFFFFF"
    stroke-width="3.6"
    stroke-linecap="round"
  />
</svg>
